<?xml version="1.0" standalone="no"?><!DOCTYPE svg PUBLIC "-//W3C//DTD SVG 1.1//EN" "http://www.w3.org/Graphics/SVG/1.1/DTD/svg11.dtd"><svg viewBox="0 0 1024 1024" width="32" height="32"><path d="M793.64586667 561.48906667l19.79626666-11.312v-19.7952l-19.79626666-11.312v-83.424l-15.55413334-9.89866667-15.55306666 9.89866667v65.04213333l-121.6032-70.69866667V212.23466667l25.45173333-15.55306667V176.88533333l-25.45066667-15.55413333V128.81066667l-15.55413333-9.8976-15.55413333 9.89866666v14.13973334l-84.8384-49.49013334-28.27946667 16.96853334V45.38666667l-15.55413333-9.89866667-19.79626667 9.89866667v83.424l-162.60693333 94.73706666V161.33333333l-15.55413334-9.8976-15.55413333 9.89866667v80.59626667l-117.36 67.872v19.7952l108.8768 62.2144 8.4832 5.65653333v123.01653333l-117.36 67.87093334v19.7952l108.8768 62.21546666 35.34933333 19.79626667v120.18773333l15.55306667 9.89866667 15.55413333-9.89866667V708.544l289.86666667 166.85013333v118.7744l15.55306667 9.89866667 15.55413333-9.89866667v-100.39253333l24.03733333 14.13973333 89.08053334-52.3168v55.14453334l15.55413333 9.89866666 15.55413333-9.89866666V837.216l21.2096-11.312v-19.79626667l-21.2096-11.312 2.82773334-233.30666666z m-468.02773334-128.672l46.66133334 26.86613333-46.66133334 26.86506667v-53.7312z m168.26346667-87.6672v-48.07466667l113.11893333-66.4576v179.57546667l-113.11893333-65.0432zM469.84533333 609.5648v-19.79626667l65.0432-36.76266666 74.9408 43.83253333v12.72533333l7.06986667 4.2432v80.59733334L469.84533333 609.56373333z m178.16213334 9.89866667l24.03733333 14.13866666 90.49493333-52.3168V779.24266667L649.41866667 714.19946667l-1.41333334-94.73706667zM778.09066667 444.128z" p-id="10067"></path></svg>