<?xml version="1.0" standalone="no"?><!DOCTYPE svg PUBLIC "-//W3C//DTD SVG 1.1//EN" "http://www.w3.org/Graphics/SVG/1.1/DTD/svg11.dtd"><svg t="1628751431227" class="icon" viewBox="0 0 1024 1024" version="1.1" xmlns="http://www.w3.org/2000/svg" p-id="5833" xmlns:xlink="http://www.w3.org/1999/xlink" width="32" height="32"><defs><style type="text/css"></style></defs><path d="M1024 512a512 512 0 1 0-512 512 512 512 0 0 0 512-512zM584.98 747.132c-75.717 80.734-171.275 106.505-182.45 45.613-8.666-45.613 36.49-212.098 45.613-273.675 2.964-20.526-22.807 0-22.807 0s-74.348 52.226-91.225 22.806c-2.736-4.561 15.509-18.929 22.807-22.806 0 0 154.854-114.031 205.256-91.225s-17.79 162.38-22.807 182.45-37.174 179.713 68.42 91.225c0 0 52.91-35.122-22.807 45.612m-37.63-389.53a80.05 80.05 0 1 1 84.155-75.489 79.594 79.594 0 0 1-84.155 75.489" p-id="5834"></path></svg>